<?xml version="1.0" standalone="no"?>
<!DOCTYPE svg PUBLIC "-//W3C//DTD SVG 20010904//EN"
 "http://www.w3.org/TR/2001/REC-SVG-20010904/DTD/svg10.dtd">
<svg version="1.0" xmlns="http://www.w3.org/2000/svg"
 width="30.000000pt" height="30.000000pt" viewBox="0 0 30.000000 30.000000"
 preserveAspectRatio="xMidYMid meet">

<g transform="translate(0.000000,30.000000) scale(0.100000,-0.100000)"
fill="#000000" stroke="none">
<path d="M27 253 c-4 -3 -7 -35 -7 -69 0 -59 2 -64 25 -70 14 -3 25 -12 25
-20 0 -18 14 -18 30 1 7 8 29 15 49 15 49 0 61 14 61 71 0 78 -1 79 -94 79
-46 0 -86 -3 -89 -7z m163 -68 l0 -55 -38 0 c-21 0 -43 -5 -50 -12 -9 -9 -12
-9 -12 0 0 7 -11 12 -25 12 -24 0 -25 3 -25 55 l0 55 75 0 75 0 0 -55z"/>
<path d="M88 213 c18 -2 45 -2 60 0 15 2 0 4 -33 4 -33 0 -45 -2 -27 -4z"/>
<path d="M60 180 c0 -5 16 -10 35 -10 19 0 35 5 35 10 0 6 -16 10 -35 10 -19
0 -35 -4 -35 -10z"/>
<path d="M230 200 c0 -5 7 -10 15 -10 13 0 15 -11 13 -57 -3 -51 -5 -57 -29
-63 -14 -4 -47 -4 -73 0 -26 4 -49 3 -52 -2 -3 -4 12 -8 32 -8 21 0 46 -7 56
-17 17 -15 19 -15 31 -1 6 9 21 18 32 20 17 3 20 12 23 67 2 45 -1 67 -10 72
-18 12 -38 11 -38 -1z"/>
</g>
</svg>
