<?xml version="1.0" standalone="no"?>
<!DOCTYPE svg PUBLIC "-//W3C//DTD SVG 20010904//EN"
 "http://www.w3.org/TR/2001/REC-SVG-20010904/DTD/svg10.dtd">
<svg version="1.0" xmlns="http://www.w3.org/2000/svg"
 width="30.000000pt" height="30.000000pt" viewBox="0 0 30.000000 30.000000"
 preserveAspectRatio="xMidYMid meet">

<g transform="translate(0.000000,30.000000) scale(0.100000,-0.100000)"
fill="#000000" stroke="none">
<path d="M24 246 c-28 -21 -28 -171 0 -192 23 -16 141 -20 131 -4 -3 6 -32 10
-65 10 -43 0 -59 4 -64 16 -9 23 -7 137 3 152 6 10 39 13 121 13 82 0 115 -3
121 -13 10 -15 12 -129 3 -152 -3 -9 -12 -16 -20 -16 -8 0 -14 -4 -14 -10 0
-14 13 -12 36 4 16 12 19 27 19 96 0 107 -4 110 -145 110 -76 0 -112 -4 -126
-14z"/>
<path d="M107 193 c-11 -10 -8 -71 3 -78 6 -4 10 10 10 34 l0 41 35 -17 c43
-20 44 -27 5 -43 -17 -7 -28 -15 -26 -18 11 -10 66 21 66 37 0 10 -15 25 -35
34 -39 19 -48 20 -58 10z"/>
</g>
</svg>
